<svg width="34" height="33" viewBox="0 0 34 33" fill="none" xmlns="http://www.w3.org/2000/svg">
<path d="M17.8646 10.8303L17.8646 10.8303C17.7678 9.50099 18.1848 8.32742 18.9925 7.48579C19.8062 6.63802 20.9633 6.15625 22.3125 6.15625C23.6457 6.15625 24.8084 6.64517 25.6216 7.49323L25.6216 7.49325C26.4385 8.34504 26.8541 9.51705 26.7579 10.8287C26.6635 12.094 26.1433 13.269 25.3069 14.1416C24.4461 15.0391 23.38 15.5 22.3125 15.5C21.2459 15.5 20.1788 15.0393 19.3148 14.1416C18.4764 13.2673 17.9564 12.092 17.8646 10.8303Z" stroke="white" stroke-width="2"/>
<path d="M31.0669 26.8438H31.0718C31.2046 26.8444 31.3347 26.8155 31.4519 26.7605C31.5673 26.7062 31.666 26.6287 31.742 26.5357C31.8301 26.4226 31.8896 26.2941 31.9181 26.1597C31.9471 26.0237 31.944 25.8834 31.909 25.7484L31.9075 25.7423L31.9075 25.7423C31.42 23.8102 30.2079 22.2061 28.355 21.1002L28.3547 21.1001C26.6909 20.1064 24.6055 19.5625 22.3125 19.5625C20.0712 19.5625 17.9249 20.1301 16.2695 21.1249L31.0669 26.8438ZM31.0669 26.8438L13.5588 26.8437L13.5536 26.8438M31.0669 26.8438L13.5536 26.8438M13.5536 26.8438C13.4203 26.8445 13.2896 26.8154 13.1719 26.76C13.056 26.7054 12.9569 26.6273 12.8807 26.5337M13.5536 26.8438L12.8807 26.5337M12.8807 26.5337C12.793 26.4208 12.7338 26.2923 12.7056 26.1581C12.6771 26.0223 12.6805 25.8822 12.7159 25.7476L12.7159 25.7476L12.7172 25.7423C13.2062 23.8365 14.4162 22.2394 16.2694 21.125L12.8807 26.5337ZM31.0669 27.8438H13.5588H31.0669Z" stroke="white" stroke-width="2"/>
<path d="M7.09683 9.29334L7.09709 9.29306C7.74675 8.61495 8.68267 8.21875 9.76171 8.21875C10.8363 8.21875 11.7644 8.61454 12.4216 9.30068L12.4219 9.30101C13.0845 9.99224 13.4213 10.9338 13.3419 11.9831L13.3418 11.9852C13.1828 14.1466 11.4825 15.7578 9.76171 15.7578C8.03679 15.7578 6.33659 14.1461 6.17708 11.9851C6.10175 10.9199 6.44268 9.97562 7.09683 9.29334Z" stroke="white" stroke-width="2"/>
<mask id="path-5-inside-1" fill="white">
<path d="M14.1219 18.7849C12.9539 18.2306 11.4378 17.9534 9.76237 17.9534C7.80604 17.9534 5.90616 18.4484 4.41202 19.3469C2.71799 20.3672 1.57846 21.8528 1.11827 23.6466C1.05092 23.9046 1.04455 24.174 1.09963 24.4348C1.15472 24.6955 1.26983 24.9408 1.43635 25.1522C1.59436 25.3491 1.7968 25.5082 2.02808 25.6172C2.25936 25.7263 2.51333 25.7824 2.77045 25.7813H10.1415C10.266 25.7813 10.3864 25.7389 10.4819 25.6615C10.5774 25.5841 10.6419 25.4766 10.6642 25.3578C10.6715 25.3172 10.6808 25.2766 10.6914 25.2366C11.2545 23.0414 12.574 21.1864 14.5237 19.8342C14.5954 19.784 14.6531 19.7173 14.6915 19.64C14.7299 19.5627 14.7479 19.4774 14.7437 19.3917C14.7396 19.306 14.7134 19.2226 14.6677 19.1492C14.622 19.0758 14.5581 19.0146 14.4819 18.9711C14.3776 18.9118 14.2581 18.8493 14.1219 18.7849Z"/>
</mask>
<path d="M14.1219 18.7849L13.2645 20.5918L13.2661 20.5925L14.1219 18.7849ZM4.41202 19.3469L3.38134 17.6329L3.38014 17.6337L4.41202 19.3469ZM1.11827 23.6466L3.05344 24.1517L3.05553 24.1436L1.11827 23.6466ZM1.43635 25.1522L-0.134907 26.3896L-0.129201 26.3968L-0.123429 26.404L1.43635 25.1522ZM2.77045 25.7813V23.7813L2.76163 23.7813L2.77045 25.7813ZM10.1415 25.7813V27.7813H10.1418L10.1415 25.7813ZM10.6642 25.3578L12.6301 25.7258L12.6326 25.7119L10.6642 25.3578ZM10.6914 25.2366L12.6242 25.7506L12.6265 25.7421L12.6287 25.7336L10.6914 25.2366ZM14.5237 19.8342L15.6635 21.4776L15.6702 21.4729L14.5237 19.8342ZM14.4819 18.9711L15.4715 17.2331L15.4706 17.2327L14.4819 18.9711ZM14.9794 16.978C13.4635 16.2587 11.6312 15.9534 9.76237 15.9534V19.9534C11.2444 19.9534 12.4442 20.2025 13.2645 20.5918L14.9794 16.978ZM9.76237 15.9534C7.48812 15.9534 5.22331 16.5253 3.38134 17.6329L5.44269 21.0609C6.58901 20.3716 8.12396 19.9534 9.76237 19.9534V15.9534ZM3.38014 17.6337C1.27137 18.9038 -0.218522 20.8091 -0.818992 23.1496L3.05553 24.1436C3.37545 22.8966 4.16462 21.8307 5.44389 21.0602L3.38014 17.6337ZM-0.816893 23.1415C-0.962588 23.6996 -0.976461 24.2835 -0.857174 24.8482L3.05644 24.0214C3.06556 24.0645 3.06443 24.1096 3.05343 24.1517L-0.816893 23.1415ZM-0.857174 24.8482C-0.737919 25.4126 -0.489559 25.9393 -0.134907 26.3896L3.00761 23.9148C3.02921 23.9422 3.04735 23.9783 3.05644 24.0214L-0.857174 24.8482ZM-0.123429 26.404C0.227316 26.8411 0.672611 27.1893 1.17509 27.4262L2.88106 23.8082C2.92098 23.8271 2.96141 23.8571 2.99613 23.9004L-0.123429 26.404ZM1.17509 27.4262C1.67739 27.6631 2.22597 27.7837 2.77928 27.7813L2.76163 23.7813C2.80069 23.7811 2.84132 23.7895 2.88106 23.8082L1.17509 27.4262ZM2.77045 27.7813H10.1415V23.7813H2.77045V27.7813ZM10.1418 27.7813C10.7185 27.7812 11.2847 27.5851 11.741 27.2154L9.22283 24.1075C9.4881 23.8926 9.81342 23.7813 10.1413 23.7813L10.1418 27.7813ZM11.741 27.2154C12.1986 26.8447 12.5188 26.3199 12.63 25.7258L8.69831 24.9898C8.76503 24.6334 8.95631 24.3235 9.22283 24.1075L11.741 27.2154ZM12.6326 25.7119C12.6288 25.7329 12.6254 25.7461 12.6242 25.7506L8.75855 24.7227C8.73611 24.8071 8.71415 24.9015 8.69576 25.0037L12.6326 25.7119ZM12.6287 25.7336C13.0657 24.0299 14.0861 22.5716 15.6635 21.4776L13.3839 18.1908C11.0619 19.8012 9.44334 22.0528 8.75411 24.7397L12.6287 25.7336ZM15.6702 21.4729C16.0118 21.2339 16.2929 20.9114 16.4824 20.5304L12.9006 18.7496C13.0133 18.5231 13.179 18.3341 13.3772 18.1954L15.6702 21.4729ZM16.4824 20.5304C16.672 20.1489 16.7622 19.7239 16.7414 19.2948L12.7461 19.4885C12.7336 19.2308 12.7878 18.9765 12.9006 18.7496L16.4824 20.5304ZM16.7414 19.2948C16.7206 18.8658 16.5898 18.4523 16.3655 18.092L12.97 20.2064C12.8371 19.9929 12.7585 19.7461 12.7461 19.4885L16.7414 19.2948ZM16.3655 18.092C16.1414 17.7321 15.8324 17.4386 15.4715 17.2331L13.4923 20.7092C13.2838 20.5905 13.1026 20.4194 12.97 20.2064L16.3655 18.092ZM15.4706 17.2327C15.3206 17.1474 15.1566 17.0619 14.9778 16.9772L13.2661 20.5925C13.3595 20.6367 13.4346 20.6763 13.4931 20.7096L15.4706 17.2327Z" fill="white" mask="url(#path-5-inside-1)"/>
</svg>
